<svg width="145" height="24" viewBox="0 0 145 24" fill="none" xmlns="http://www.w3.org/2000/svg">
<path d="M0.912731 1.18182H5.74938L12.2267 16.9915H12.4823L18.9596 1.18182H23.7963V23H20.0036V8.01065H19.8012L13.7714 22.9361H10.9376L4.90776 7.97869H4.70535V23H0.912731V1.18182Z" fill="url(#paint0_linear_2_11)"/>
<path d="M27.9298 23V6.63636H31.7863V23H27.9298ZM29.8687 4.31392C29.2579 4.31392 28.7323 4.1115 28.292 3.70667C27.8517 3.29474 27.6315 2.80113 27.6315 2.22585C27.6315 1.64346 27.8517 1.14986 28.292 0.745026C28.7323 0.333094 29.2579 0.127129 29.8687 0.127129C30.4866 0.127129 31.0122 0.333094 31.4454 0.745026C31.8857 1.14986 32.1059 1.64346 32.1059 2.22585C32.1059 2.80113 31.8857 3.29474 31.4454 3.70667C31.0122 4.1115 30.4866 4.31392 29.8687 4.31392Z" fill="url(#paint1_linear_2_11)"/>
<path d="M39.6086 13.4119V23H35.752V6.63636H39.4381V9.4169H39.6299C40.0063 8.50071 40.6064 7.77273 41.4303 7.23295C42.2613 6.69318 43.2876 6.42329 44.5091 6.42329C45.6384 6.42329 46.6221 6.66477 47.4601 7.14773C48.3053 7.63068 48.9587 8.33025 49.4204 9.24645C49.8891 10.1626 50.1199 11.2741 50.1128 12.581V23H46.2563V13.1776C46.2563 12.0838 45.9722 11.228 45.404 10.6101C44.843 9.99219 44.0653 9.68324 43.0709 9.68324C42.3962 9.68324 41.7961 9.83238 41.2705 10.1307C40.752 10.4219 40.3437 10.8445 40.0454 11.3984C39.7542 11.9524 39.6086 12.6236 39.6086 13.4119Z" fill="url(#paint2_linear_2_11)"/>
<path d="M60.1057 23.2876C58.8202 23.2876 57.6697 22.9574 56.654 22.2969C55.6384 21.6364 54.8358 20.6776 54.2464 19.4205C53.6569 18.1633 53.3621 16.6364 53.3621 14.8395C53.3621 13.0213 53.6604 11.4872 54.257 10.2372C54.8607 8.98011 55.6739 8.03196 56.6966 7.39275C57.7194 6.74645 58.8593 6.42329 60.1164 6.42329C61.0752 6.42329 61.8635 6.58665 62.4814 6.91335C63.0993 7.23295 63.5894 7.62003 63.9516 8.07457C64.3138 8.52202 64.5944 8.9446 64.7932 9.34233H64.953V1.18182H68.8202V23H65.0276V20.4219H64.7932C64.5944 20.8196 64.3067 21.2422 63.9303 21.6896C63.5539 22.13 63.0567 22.5064 62.4388 22.8189C61.8209 23.1314 61.0432 23.2876 60.1057 23.2876ZM61.1817 20.1236C61.9985 20.1236 62.6945 19.9034 63.2698 19.4631C63.8451 19.0156 64.2819 18.3942 64.5802 17.5987C64.8785 16.8033 65.0276 15.8764 65.0276 14.8182C65.0276 13.7599 64.8785 12.8402 64.5802 12.0589C64.289 11.2777 63.8557 10.6705 63.2805 10.2372C62.7123 9.80398 62.0127 9.58736 61.1817 9.58736C60.3224 9.58736 59.605 9.81108 59.0297 10.2585C58.4545 10.706 58.0212 11.3239 57.73 12.1122C57.4388 12.9006 57.2932 13.8026 57.2932 14.8182C57.2932 15.8409 57.4388 16.7535 57.73 17.5561C58.0283 18.3516 58.4651 18.9801 59.0404 19.4418C59.6228 19.8963 60.3366 20.1236 61.1817 20.1236Z" fill="url(#paint3_linear_2_11)"/>
<path d="M73.1002 23V1.18182H87.0775V4.49503H77.0526V10.4183H86.1187V13.7315H77.0526V23H73.1002Z" fill="url(#paint4_linear_2_11)"/>
<path d="M94.3644 1.18182V23H90.5079V1.18182H94.3644Z" fill="url(#paint5_linear_2_11)"/>
<path d="M105.468 23.3196C103.87 23.3196 102.485 22.968 101.313 22.2649C100.141 21.5618 99.2322 20.5781 98.5858 19.3139C97.9466 18.0497 97.627 16.5724 97.627 14.8821C97.627 13.1918 97.9466 11.7109 98.5858 10.4396C99.2322 9.16832 100.141 8.18111 101.313 7.47798C102.485 6.77486 103.87 6.42329 105.468 6.42329C107.066 6.42329 108.451 6.77486 109.623 7.47798C110.795 8.18111 111.7 9.16832 112.339 10.4396C112.986 11.7109 113.309 13.1918 113.309 14.8821C113.309 16.5724 112.986 18.0497 112.339 19.3139C111.7 20.5781 110.795 21.5618 109.623 22.2649C108.451 22.968 107.066 23.3196 105.468 23.3196ZM105.489 20.2301C106.356 20.2301 107.08 19.9922 107.663 19.5163C108.245 19.0334 108.678 18.3871 108.962 17.5774C109.253 16.7678 109.399 15.8658 109.399 14.8714C109.399 13.87 109.253 12.9645 108.962 12.1548C108.678 11.3381 108.245 10.6882 107.663 10.2053C107.08 9.7223 106.356 9.48082 105.489 9.48082C104.601 9.48082 103.863 9.7223 103.273 10.2053C102.691 10.6882 102.254 11.3381 101.963 12.1548C101.679 12.9645 101.537 13.87 101.537 14.8714C101.537 15.8658 101.679 16.7678 101.963 17.5774C102.254 18.3871 102.691 19.0334 103.273 19.5163C103.863 19.9922 104.601 20.2301 105.489 20.2301Z" fill="url(#paint6_linear_2_11)"/>
<path d="M119.491 23L114.867 6.63636H118.798L121.674 18.142H121.824L124.764 6.63636H128.652L131.593 18.0781H131.753C131.753 18.0781 133 7.5 136.5 4.5C138.872 2.4668 144.5 3.5 144.5 3.5C144.5 3.5 140.533 4.92775 138.528 6.63636C133.473 10.9443 133.894 23 133.894 23H129.878L126.809 11.9418H126.586L123.517 23H119.491Z" fill="url(#paint7_linear_2_11)"/>
<circle cx="138.5" cy="4.5" r="0.5" fill="white"/>
<defs>
<linearGradient id="paint0_linear_2_11" x1="0.912731" y1="11.7234" x2="144.5" y2="11.7234" gradientUnits="userSpaceOnUse">
<stop stop-color="#2961EB"/>
<stop offset="1" stop-color="#7B3BED"/>
</linearGradient>
<linearGradient id="paint1_linear_2_11" x1="0.912731" y1="11.7234" x2="144.5" y2="11.7234" gradientUnits="userSpaceOnUse">
<stop stop-color="#2961EB"/>
<stop offset="1" stop-color="#7B3BED"/>
</linearGradient>
<linearGradient id="paint2_linear_2_11" x1="0.912731" y1="11.7234" x2="144.5" y2="11.7234" gradientUnits="userSpaceOnUse">
<stop stop-color="#2961EB"/>
<stop offset="1" stop-color="#7B3BED"/>
</linearGradient>
<linearGradient id="paint3_linear_2_11" x1="0.912731" y1="11.7234" x2="144.5" y2="11.7234" gradientUnits="userSpaceOnUse">
<stop stop-color="#2961EB"/>
<stop offset="1" stop-color="#7B3BED"/>
</linearGradient>
<linearGradient id="paint4_linear_2_11" x1="0.912731" y1="11.7234" x2="144.5" y2="11.7234" gradientUnits="userSpaceOnUse">
<stop stop-color="#2961EB"/>
<stop offset="1" stop-color="#7B3BED"/>
</linearGradient>
<linearGradient id="paint5_linear_2_11" x1="0.912731" y1="11.7234" x2="144.5" y2="11.7234" gradientUnits="userSpaceOnUse">
<stop stop-color="#2961EB"/>
<stop offset="1" stop-color="#7B3BED"/>
</linearGradient>
<linearGradient id="paint6_linear_2_11" x1="0.912731" y1="11.7234" x2="144.5" y2="11.7234" gradientUnits="userSpaceOnUse">
<stop stop-color="#2961EB"/>
<stop offset="1" stop-color="#7B3BED"/>
</linearGradient>
<linearGradient id="paint7_linear_2_11" x1="0.912731" y1="11.7234" x2="144.5" y2="11.7234" gradientUnits="userSpaceOnUse">
<stop stop-color="#2961EB"/>
<stop offset="1" stop-color="#7B3BED"/>
</linearGradient>
</defs>
</svg>
